<?xml version="1.0" encoding="utf-8"?>
<!-- Generator: Adobe Illustrator 23.1.1, SVG Export Plug-In . SVG Version: 6.00 Build 0)  -->
<svg version="1.1" id="Layer_1" xmlns="http://www.w3.org/2000/svg" xmlns:xlink="http://www.w3.org/1999/xlink" x="0px" y="0px"
	 width="252.4px" height="182.8px" viewBox="0 0 252.4 182.8" enable-background="new 0 0 252.4 182.8" xml:space="preserve">
<style>.eye {opacity:1;animation: eye 3s infinite;}.blinked {opacity:0;animation: blink 3s infinite;}@keyframes eye {0% {opacity:1;}98% {opacity:1;}100% {opacity:0;}}@keyframes blink {0% {opacity:0;}98% {opacity:0;}100% {opacity:1;}}</style>
<path d="M193.1,83.7L95.5,27.9c-3.7-2.1-7.9-3.3-12.3-3.3l0,0l0,0l0,0H120L95.5,12.3L120.1,0H83.2C77.7,0,73,3.7,71.5,8.8l0,0
	L60.3,40.3l0,0c-1.1,2.7-1.6,5.7-1.6,8.8c0,6.5,2.8,12.6,7.2,17.4l6.3,6.9c0,0.1,0.1,0.1,0.1,0.2l15.8,17.3H66
	c-4.1,0-7.4,3.3-7.4,7.4s3.3,7.4,7.4,7.4c0.7,0,1.2-0.5,1.2-1.2s-0.6-1.2-1.2-1.2c-2.7,0-4.9-2.2-4.9-4.9c0-2.7,2.2-4.9,4.9-4.9
	c2.7,0,4.9,2.2,4.9,4.9c0,0.7,0.6,1.2,1.2,1.2c0.7,0,1.2-0.6,1.2-1.2c0-1.9-0.7-3.6-1.9-4.9h19.4c1,0,1.6-1.2,0.9-2L85.2,84
	l10.3-10.3l10.6,10.6l-23.7,23.8h-11c-0.7,0-1.2,0.6-1.2,1.2c0,0.7,0.6,1.2,1.2,1.2h22.1c0.7,0,1.2-0.6,1.2-1.2
	c0-0.7-0.6-1.2-1.2-1.2h-7.6L120,73.7h50.7l21.2,12.1c0.6,0.3,1.3,0.1,1.7-0.5C193.9,84.8,193.7,84,193.1,83.7"/>
<polyline fill="none" stroke="#000000" stroke-width="2.5244" stroke-linecap="round" stroke-linejoin="round" stroke-miterlimit="10" points="
	251.2,152.9 165.7,152.9 165.7,138.5 "/>
<path fill="none" stroke="#000000" stroke-width="2.4207" stroke-linecap="round" stroke-linejoin="round" stroke-miterlimit="10" d="
	M149.7,148.8c0.9,2.6,3.5,4.5,6.5,4.1c2.8-0.3,5.1-2.6,5.4-5.4c0.4-3.7-2.5-6.8-6.1-6.8c-1.7,0.1-3.3,0.8-4.5,2l-9.8,10.2"/>
<path fill="none" stroke="#000000" stroke-width="2.4207" stroke-linecap="round" stroke-linejoin="round" stroke-miterlimit="10" d="
	M77.1,141.7c0.7-2,2.6-3.4,4.9-3.2s4.1,2,4.4,4.2c0.3,2.9-1.9,5.3-4.8,5.3l0,0c-0.7,0-1.5-0.2-2.1-0.6l-9.8-5.8
	c-0.9-0.5-1.9-0.8-2.9-0.8l0,0c-3.3,0-6,2.7-6,6l0,0c0,3.3,2.7,6,6,6h19.4"/>
<polyline fill="none" stroke="#000000" stroke-width="2.4207" stroke-linecap="round" stroke-linejoin="round" stroke-miterlimit="10" points="
	19.2,181.3 34.3,166.5 34.3,181.3 "/>
<polyline fill="none" stroke="#000000" stroke-width="2.4207" stroke-linecap="round" stroke-linejoin="round" stroke-miterlimit="10" points="
	171.6,181.3 186.7,166.5 186.7,181.3 "/>
<polyline fill="none" stroke="#000000" stroke-width="2.4207" stroke-linecap="round" stroke-linejoin="round" stroke-miterlimit="10" points="
	55,181.3 55,166.5 47.3,181 39.6,166.5 39.6,181.3 "/>
<line fill="none" stroke="#000000" stroke-width="2.4207" stroke-linecap="round" stroke-linejoin="round" stroke-miterlimit="10" x1="108.1" y1="133.6" x2="94.8" y2="146.7"/>
<path fill="none" stroke="#000000" stroke-width="2.4207" stroke-linecap="round" stroke-linejoin="round" stroke-miterlimit="10" d="
	M106.1,140.7h26.1c3.6,0,6.5,3.1,6.1,6.8c-0.3,2.8-2.6,5.1-5.4,5.4H91v-14.5"/>
<line fill="none" stroke="#000000" stroke-width="2.4207" stroke-linecap="round" stroke-linejoin="round" stroke-miterlimit="10" x1="73.5" y1="138.4" x2="73.5" y2="139.6"/>
<line fill="none" stroke="#000000" stroke-width="2.4207" stroke-linecap="round" stroke-linejoin="round" stroke-miterlimit="10" x1="5.4" y1="138.4" x2="5.4" y2="139.6"/>
<line fill="none" stroke="#000000" stroke-width="2.4207" stroke-linecap="round" stroke-linejoin="round" stroke-miterlimit="10" x1="17.6" y1="138.6" x2="10.6" y2="138.6"/>
<path fill="none" stroke="#000000" stroke-width="2.4207" stroke-linecap="round" stroke-linejoin="round" stroke-miterlimit="10" d="
	M56.1,144.8v3.9c0,2.3-1.9,4.2-4.2,4.2h-33"/>
<path fill="none" stroke="#000000" stroke-width="2.4207" stroke-linecap="round" stroke-linejoin="round" stroke-miterlimit="10" d="
	M51.7,138.8v5.6c0,1.3-1.1,2.4-2.4,2.4l0,0c-1.3,0-2.4-1.1-2.4-2.4v-5.6v5.6c0,1.3-1.1,2.4-2.4,2.4l0,0c-1.3,0-2.4-1.1-2.4-2.4v-5.6
	v5.6c0,1.4-1.1,2.5-2.5,2.5h-22v-3.6h-7.1v5.4c0,2.3-1.9,4.2-4.2,4.2l0,0"/>
<path fill="none" stroke="#000000" stroke-width="2.4207" stroke-linecap="round" stroke-linejoin="round" stroke-miterlimit="10" d="
	M5.4,143.3v5.4c0,2.3-1.9,4.2-4.2,4.2l0,0"/>
<circle fill="none" stroke="#000000" stroke-width="2.4207" stroke-linecap="round" stroke-linejoin="round" stroke-miterlimit="10" cx="57" cy="136" r="2.2"/>
<line fill="none" stroke="#000000" stroke-width="2.4207" stroke-linecap="round" stroke-linejoin="round" stroke-miterlimit="10" x1="58.5" y1="137.5" x2="55.7" y2="140.4"/>
<path fill="none" stroke="#000000" stroke-width="2.4207" stroke-linecap="round" stroke-linejoin="round" stroke-miterlimit="10" d="
	M15.8,167.8v-1.1c0-2.7-2.2-4.9-4.9-4.9H6.1c-2.7,0-4.9,2.2-4.9,4.9l0,0c0,2.7,2.2,4.9,4.9,4.9h4.8c2.7,0,4.9,2.2,4.9,4.9l0,0
	c0,2.7-2.2,4.9-4.9,4.9H6.1c-2.7,0-4.9-2.2-4.9-4.9v-1.1"/>
<path fill="none" stroke="#000000" stroke-width="2.4207" stroke-linecap="round" stroke-linejoin="round" stroke-miterlimit="10" d="
	M142.1,181.3v-19.5h8.4c2.7,0,4.8,2.2,4.8,4.8l0,0c0,2.7-2.2,4.8-4.8,4.8h-4.6l9.4,9.8"/>
<path fill="none" stroke="#000000" stroke-width="2.4207" stroke-linecap="round" stroke-linejoin="round" stroke-miterlimit="10" d="
	M75.1,176.2c-0.9,2.9-3.7,5-6.9,5c-4,0-7.3-3.3-7.3-7.3V169c0-4,3.3-7.3,7.3-7.3c3.2,0,6,2.1,6.9,5"/>
<path fill="none" stroke="#000000" stroke-width="2.4207" stroke-linecap="round" stroke-linejoin="round" stroke-miterlimit="10" d="
	M80.1,171.3c0-2.7,2.2-5,5-5c2.7,0,5,2.2,5,5v5.1c0,2.7-2.2,5-5,5c-2.7,0-5-2.2-5-5V171.3z"/>
<path fill="none" stroke="#000000" stroke-width="2.4207" stroke-linecap="round" stroke-linejoin="round" stroke-miterlimit="10" d="
	M158.4,171.3c0-2.7,2.2-5,5-5c2.7,0,5,2.2,5,5v5.1c0,2.7-2.2,5-5,5c-2.7,0-5-2.2-5-5V171.3z"/>
<path fill="none" stroke="#000000" stroke-width="2.4207" stroke-linecap="round" stroke-linejoin="round" stroke-miterlimit="10" d="
	M102.2,166.3H96v15"/>
<line fill="none" stroke="#000000" stroke-width="2.4207" stroke-linecap="round" stroke-linejoin="round" stroke-miterlimit="10" x1="97" y1="173.8" x2="102.2" y2="173.8"/>
<path fill="none" stroke="#000000" stroke-width="2.4207" stroke-linecap="round" stroke-linejoin="round" stroke-miterlimit="10" d="
	M113.5,166.3h-6.2v15"/>
<line fill="none" stroke="#000000" stroke-width="2.4207" stroke-linecap="round" stroke-linejoin="round" stroke-miterlimit="10" x1="108.3" y1="173.8" x2="113.5" y2="173.8"/>
<path fill="none" stroke="#000000" stroke-width="2.4207" stroke-linecap="round" stroke-linejoin="round" stroke-miterlimit="10" d="
	M124.8,166.3h-6.2v15h6.2"/>
<line fill="none" stroke="#000000" stroke-width="2.4207" stroke-linecap="round" stroke-linejoin="round" stroke-miterlimit="10" x1="119.5" y1="173.8" x2="124.8" y2="173.8"/>
<path fill="none" stroke="#000000" stroke-width="2.4207" stroke-linecap="round" stroke-linejoin="round" stroke-miterlimit="10" d="
	M136,166.3h-6.2v15h6.2"/>
<line fill="none" stroke="#000000" stroke-width="2.4207" stroke-linecap="round" stroke-linejoin="round" stroke-miterlimit="10" x1="208.7" y1="166.3" x2="208.7" y2="181.3"/>
<path fill="none" stroke="#000000" stroke-width="2.4207" stroke-linecap="round" stroke-linejoin="round" stroke-miterlimit="10" d="
	M214.4,166.3h-11.5"/>
<line fill="none" stroke="#000000" stroke-width="2.4207" stroke-linecap="round" stroke-linejoin="round" stroke-miterlimit="10" x1="130.8" y1="173.8" x2="136" y2="173.8"/>
<path fill="none" stroke="#000000" stroke-width="2.4207" stroke-linecap="round" stroke-linejoin="round" stroke-miterlimit="10" d="
	M224.9,166.3h-6.2v15h6.2"/>
<line fill="none" stroke="#000000" stroke-width="2.4207" stroke-linecap="round" stroke-linejoin="round" stroke-miterlimit="10" x1="219.7" y1="173.8" x2="224.9" y2="173.8"/>
<path fill="none" stroke="#000000" stroke-width="2.4207" stroke-linecap="round" stroke-linejoin="round" stroke-miterlimit="10" d="
	M251.2,170.2L251.2,170.2c0-2-1.7-3.7-3.7-3.7l0,0c-2,0-3.7,1.7-3.7,3.7l0,0c0,2,1.7,3.7,3.7,3.7h0.1c2,0,3.6,1.6,3.6,3.6v0.2
	c0,2-1.6,3.6-3.6,3.6h-0.2c-2,0-3.6-1.6-3.6-3.6l0,0"/>
<path fill="none" stroke="#000000" stroke-width="2.4207" stroke-linecap="round" stroke-linejoin="round" stroke-miterlimit="10" d="
	M199.4,170.2L199.4,170.2c0-2-1.7-3.7-3.7-3.7l0,0c-2,0-3.7,1.7-3.7,3.7l0,0c0,2,1.7,3.7,3.7,3.7h0.1c2,0,3.6,1.6,3.6,3.6v0.2
	c0,2-1.6,3.6-3.6,3.6h-0.2c-2,0-3.6-1.6-3.6-3.6l0,0"/>
<path fill="none" stroke="#000000" stroke-width="2.4207" stroke-linecap="round" stroke-linejoin="round" stroke-miterlimit="10" d="
	M231,177.7"/>
<path fill="none" stroke="#000000" stroke-width="2.4207" stroke-linecap="round" stroke-linejoin="round" stroke-miterlimit="10" d="
	M230,181.3v-15h3.7c2.8,0,5.1,2.3,5.1,5.1s-2.3,5.1-5.1,5.1l5.1,5.1"/>
<rect class="blinked" x="83.2" y="11.7" fill="#FFFFFF" width="8.6" height="1"/>
<circle class="eye" fill="#FFFFFF" cx="87.5" cy="12.2" r="4.3"/>
</svg>
